# xmcd CD database file
#
# Track frame offsets:
#	150
#	21440
#	38145
#	59380
#	78307
#
# Disc length: 1448 seconds
#
# Revision: 0
# Processed by: cddbd v1.5PL3 Copyright (c) Steve Scherf et al.
# Submitted via: CDex 1.51
#
DISCID=3805a605
DTITLE=URUGOME - New Frontiers
DYEAR=1900
DGENRE=Rock
TTITLE0=New Frontiers
TTITLE1=Ghost in Your House
TTITLE2=さよならエイリアン 〜AD二千と九十九のLOVE STORY〜
TTITLE3=あなたがいた風景
TTITLE4=In the Crazy World
EXTD=
EXTT0=
EXTT1=
EXTT2=
EXTT3=
EXTT4=
PLAYORDER=
